<?xml version="1.0" encoding="UTF-8" standalone="no"?>
<!DOCTYPE svg PUBLIC "-//W3C//DTD SVG 1.1//EN" "http://www.w3.org/Graphics/SVG/1.1/DTD/svg11.dtd">
<!-- Created with Vectornator (http://vectornator.io/) -->
<svg height="100%" stroke-miterlimit="10" style="fill-rule:nonzero;clip-rule:evenodd;stroke-linecap:round;stroke-linejoin:round;" version="1.1" viewBox="0 0 3370.82 2384.24" width="100%" xml:space="preserve" xmlns="http://www.w3.org/2000/svg" xmlns:xlink="http://www.w3.org/1999/xlink">
<defs/>
<g id="Layer-2">
<g opacity="1">
<path d="M1087.86 667.384C1084.8 691.192 1081.75 694.239 1072.57 684.526C1069.51 681.288 1066.02 679.574 1064.71 680.526C1063.4 681.669 1065.8 685.859 1069.95 689.859C1077.16 696.906 1076.94 697.286 1064.05 699.381C1020.36 706.809 1021.23 706.428 1033.25 709.476C1039.36 711 1050.51 712.523 1058.37 712.714C1073.23 713.095 1076.94 719.189 1067.33 727.57C1059.68 734.236 1068.42 733.093 1077.16 726.236C1084.15 720.713 1084.8 722.046 1087.64 745.854C1090.92 771.947 1098.57 773.661 1098.79 748.33C1098.79 735.506 1100.85 733.206 1106.21 743.178C1110.08 750.387 1115.68 764.01 1123.47 784.707C1133.3 811.372 1156.46 867.176 1174.81 908.887C1213.48 997.07 1210.64 987.356 1197.09 987.356C1191.19 987.356 1186.17 989.071 1186.17 991.166C1186.17 993.261 1191.19 994.975 1197.31 994.975C1206.05 994.975 1208.89 997.26 1211.07 1007.35C1213.7 1018.02 1214.35 1018.59 1216.54 1011.35C1218.5 1004.69 1229.21 1017.07 1271.15 1074.21C1299.77 1113.44 1345.65 1175.15 1372.95 1211.53C1400.26 1248.1 1421.89 1278.38 1421.01 1279.14C1420.14 1279.71 1414.68 1281.81 1408.78 1283.71C1398.08 1287.33 1398.08 1287.33 1411.84 1289.81C1423.42 1292.09 1426.04 1294.76 1428.88 1306.57C1431.94 1320.85 1432.59 1320.66 1436.96 1303.14L1439.58 1293.04L1552.09 1337.42C1613.91 1361.99 1697.37 1394.75 1737.34 1410.37C1777.54 1425.79 1809.22 1439.89 1808.13 1441.6C1807.03 1443.13 1812.06 1445.6 1819.49 1446.94C1835.65 1449.79 1835.65 1441.03 1819.92 1537.78C1803.76 1637.01 1800.92 1646.35 1786.94 1646.35C1781.26 1646.35 1775.36 1648.06 1773.83 1650.16C1772.3 1652.44 1776.45 1653.97 1784.1 1653.97C1795.46 1653.97 1797.2 1655.68 1800.26 1668.25L1803.54 1682.53L1807.25 1670.15C1809.44 1663.3 1812.71 1657.77 1814.46 1657.77C1816.21 1657.77 1914.73 1662.92 2033.8 1669.2C2152.86 1675.49 2255.31 1680.63 2261.87 1680.63C2270.82 1680.63 2273.23 1682.15 2271.26 1686.53C2269.73 1690.15 2270.82 1691.87 2274.32 1691.3C2277.82 1690.53 2281.31 1694.91 2283.06 1701.58L2286.12 1713.01L2289.39 1700.44C2291.58 1692.25 2294.85 1688.44 2298.57 1689.77C2302.06 1690.91 2303.37 1689.58 2301.85 1686.34C2300.32 1682.72 2304.03 1680.82 2314.08 1679.68L2328.72 1678.34L2315.61 1675.11C2290.27 1668.63 2287.43 1655.49 2280 1518.93L2277.16 1461.79L2289.83 1468.84C2296.82 1472.84 2300.1 1473.6 2297.04 1470.93C2286.77 1461.41 2291.58 1456.84 2314.52 1453.98C2338.98 1450.74 2337.24 1449.6 2298.79 1442.55C2288.08 1440.65 2287.21 1439.51 2292.23 1434.17C2297.26 1428.84 2296.82 1428.46 2288.3 1430.75C2280 1433.22 2278.47 1432.08 2278.47 1424.27C2278.47 1390.37 2266.46 1385.23 2265.58 1418.75C2265.36 1434.56 2264.71 1434.94 2250.94 1428.65C2242.42 1424.65 2241.99 1424.84 2247.23 1430.37C2261.87 1445.79 2228.44 1447.13 1966.73 1441.98L1841.55 1439.51L1841.55 1428.46C1841.55 1421.99 1839.8 1418.37 1837.18 1419.7C1834.78 1421.03 1832.81 1426.18 1832.81 1431.13L1832.81 1440.27L1798.95 1426.75C1757.66 1410.18 1486.99 1304.66 1465.8 1296.85C1452.47 1291.9 1451.6 1290.76 1459.03 1288.47C1466.24 1286.19 1465.36 1285.43 1453.57 1283.33C1441.99 1281.24 1438.93 1278.57 1436.53 1268.28C1433.69 1256.67 1433.47 1256.48 1431.06 1265.05C1428.88 1273.05 1425.17 1269.81 1402.45 1238.38C1388.25 1218.76 1341.71 1155.91 1299.11 1098.78C1238.82 1018.21 1223.31 994.975 1229.86 994.975C1234.45 994.975 1239.26 993.261 1240.78 991.166C1242.31 989.071 1238.6 987.356 1232.48 987.356C1223.75 987.356 1220.47 984.69 1217.19 974.977C1214.57 966.787 1213.04 965.263 1212.6 970.215C1212.39 974.405 1189.88 924.695 1162.58 859.748C1135.27 794.802 1110.8 736.902 1108.18 731.188L1103.37 720.713L1115.17 727.189C1127.19 733.664 1127.19 733.664 1119.54 726.046C1108.62 714.809 1109.05 714.428 1138.98 711.38C1165.63 708.714 1168.04 701.857 1142.48 701.667C1118.88 701.477 1111.68 697.667 1117.14 688.906C1121.51 681.478 1121.29 681.288 1114.73 686.049C1104.9 693.096 1103.37 691.001 1100.32 667.765C1096.6 640.529 1091.36 640.339 1087.86 667.384ZM2117.68 1451.51C2254.88 1454.36 2255.75 1454.36 2247.89 1467.31C2243.3 1474.74 2243.52 1475.12 2251.6 1471.5C2256.41 1469.22 2261.21 1467.31 2262.3 1467.31C2265.14 1467.31 2273.66 1541.59 2276.29 1591.11C2277.82 1616.25 2280 1643.3 2281.31 1651.11C2283.28 1663.68 2282.62 1665.01 2275.85 1662.92C2271.04 1661.2 2269.3 1661.77 2271.26 1664.44C2277.6 1673.39 2258.37 1673.39 2056.51 1663.68C1866.89 1654.35 1810.97 1649.77 1810.97 1642.92C1810.97 1641.78 1817.74 1598.54 1826.26 1547.31C1834.56 1495.88 1841.55 1452.65 1841.55 1451.13C1841.55 1447.7 1938.33 1447.89 2117.68 1451.51Z" fill="#000000" fill-rule="nonzero" opacity="1" stroke="none"/>
</g>
</g>
<g id="Layer-3">
<path d="M1103.37 720.362L1115.16 726.838C1127.18 733.313 1127.18 733.313 1119.53 725.695C1108.61 714.458 1109.05 714.077 1138.97 711.03C1165.63 708.363 1168.03 701.507 1142.47 701.316C1118.88 701.126 1111.67 697.317 1117.13 688.555C1121.5 681.127 1121.28 680.937 1114.73 685.698C1104.9 692.745 1103.37 690.65 1100.31 667.414C1096.59 640.179 1091.35 639.988 1087.86 667.033C1084.8 690.841 1081.74 693.888 1072.56 684.175C1069.5 680.937 1066.01 679.223 1064.7 680.175C1063.39 681.318 1065.79 685.508 1069.94 689.508C1077.15 696.555 1076.93 696.936 1064.04 699.031C1020.35 706.459 1021.22 706.078 1033.24 709.125C1039.36 710.649 1050.5 712.172 1058.36 712.363C1073.22 712.744 1076.93 718.838 1067.32 727.219C1059.67 733.885 1068.41 732.742 1077.15 725.885C1084.14 720.362 1084.8 721.695 1087.64 745.503C1090.91 771.596 1098.56 773.31 1098.78 747.979C1098.78 735.155 1100.84 732.855 1106.2 742.827C1110.07 750.037 1110.79 736.551 1108.17 730.837L1103.37 720.362" fill="#000000" fill-rule="nonzero" opacity="1" stroke="none"/>
</g>
</svg>
